# Blender 4.4.1
# www.blender.org
mtllib Tooltip.Tabaro.mtl
o Tooltip.Lines.2.Malaki
v 0.487799 2.888672 0.000000
v 5.487800 2.888672 0.000000
v 0.487799 3.611328 -0.000000
v 5.487800 3.611328 -0.000000
v 0.000000 3.230000 0.000000
v 0.499999 3.230000 0.000000
v 0.000000 3.270000 0.000000
v 0.499999 3.270000 0.000000
v 0.020000 0.000000 0.000000
v 0.020000 3.270000 0.000000
v -0.020000 0.000000 -0.000000
v -0.020000 3.270000 0.000000
vn -0.0000 -0.0000 1.0000
vt 0.000000 0.000000
vt 1.000000 0.000000
vt 1.000000 1.000000
vt 0.000000 1.000000
vt 0.033051 0.847196
vt 0.033051 0.853480
vt 0.031490 0.853480
vt 0.031490 0.847196
s 0
usemtl Material.2Lines
f 1/1/1 2/2/1 4/3/1 3/4/1
f 5/5/1 6/6/1 8/7/1 7/8/1
f 9/5/1 10/6/1 12/7/1 11/8/1
