# Blender 4.4.1
# www.blender.org
mtllib Tooltip.Munti.mtl
o Tooltip.Lines.4.Munti
v 0.731699 4.120605 0.000000
v 8.231699 4.120605 0.000000
v 0.731699 5.629395 -0.000000
v 8.231699 5.629395 -0.000000
v 0.000000 4.845000 0.000000
v 0.749999 4.845000 0.000000
v 0.000000 4.905000 0.000000
v 0.749999 4.905000 0.000000
v 0.030000 0.000000 0.000000
v 0.030000 4.905000 0.000000
v -0.030000 0.000000 -0.000000
v -0.030000 4.905000 0.000000
vn -0.0000 -0.0000 1.0000
vt 0.000000 0.000000
vt 1.000000 0.000000
vt 1.000000 1.000000
vt 0.000000 1.000000
vt 0.033051 0.847196
vt 0.033051 0.853480
vt 0.031490 0.853480
vt 0.031490 0.847196
s 0
usemtl Material.4Lines.Munti
f 1/1/1 2/2/1 4/3/1 3/4/1
f 5/5/1 6/6/1 8/7/1 7/8/1
f 9/5/1 10/6/1 12/7/1 11/8/1
