# Blender 4.4.1
# www.blender.org
mtllib Tooltip.Pirapiraso.mtl
o Tooltip.Lines.3.Pirapiraso
v 0.487799 2.812793 0.000000
v 5.487800 2.812793 0.000000
v 0.487799 3.687207 -0.000000
v 5.487800 3.687207 -0.000000
v 0.000000 3.230000 0.000000
v 0.499999 3.230000 0.000000
v 0.000000 3.270000 0.000000
v 0.499999 3.270000 0.000000
v 0.020000 0.000000 0.000000
v 0.020000 3.270000 0.000000
v -0.020000 0.000000 -0.000000
v -0.020000 3.270000 0.000000
vn -0.0000 -0.0000 1.0000
vt 0.000000 0.000000
vt 1.000000 0.000000
vt 1.000000 1.000000
vt 0.000000 1.000000
vt 0.031831 0.884358
vt 0.031831 0.890642
vt 0.030269 0.890642
vt 0.030269 0.884358
s 0
usemtl Material.3Lines
f 1/1/1 2/2/1 4/3/1 3/4/1
f 5/5/1 6/6/1 8/7/1 7/8/1
f 9/5/1 10/6/1 12/7/1 11/8/1
